HIERARCHY
ROOT Hips
{
	OFFSET 0.00000 0.00000 0.00000
	CHANNELS 6 Xposition Yposition Zposition Zrotation Yrotation Xrotation 
	JOINT LHipJoint
	{
		OFFSET 0 0 0
		CHANNELS 3 Zrotation Yrotation Xrotation
		JOINT LeftHip
		{
			OFFSET 1.09156 -1.61406 0.76500
			CHANNELS 3 Zrotation Yrotation Xrotation
			JOINT LeftKnee
			{
				OFFSET 2.33750 -6.42225 0.00000
				CHANNELS 3 Zrotation Yrotation Xrotation
				JOINT LeftAnkle
				{
					OFFSET 2.49247 -6.84800 0.00000
					CHANNELS 3 Zrotation Yrotation Xrotation
					JOINT LeftToe
					{
						OFFSET 0.15312 -0.42069 1.45461
						CHANNELS 3 Zrotation Yrotation Xrotation
						End Site
						{
							OFFSET 0.00000 -0.00000 0.77046
						}
					}
				}
			}
		}
	}
	JOINT RHipJoint
	{
		OFFSET 0 0 0
		CHANNELS 3 Zrotation Yrotation Xrotation
		JOINT RightHip
		{
			OFFSET -0.99883 -1.61406 0.76500
			CHANNELS 3 Zrotation Yrotation Xrotation
			JOINT RightKnee
			{
				OFFSET -2.36877 -6.50815 0.00000
				CHANNELS 3 Zrotation Yrotation Xrotation
				JOINT RightAnkle
				{
					OFFSET -2.53452 -6.96353 0.00000
					CHANNELS 3 Zrotation Yrotation Xrotation
					JOINT RightToe
					{
						OFFSET -0.13156 -0.36145 1.63237
						CHANNELS 3 Zrotation Yrotation Xrotation
						End Site
						{
							OFFSET -0.00000 -0.00000 0.84979
						}
					}
				}
			}
		}
	}
	JOINT lowerback
	{
		OFFSET 0 0 0
		CHANNELS 3 Zrotation Yrotation Xrotation
		JOINT Chest
		{
			OFFSET -0.02431 1.98242 -0.13616
			CHANNELS 3 Zrotation Yrotation Xrotation
			JOINT Chest2
			{
				OFFSET 0.03629 1.98974 -0.02954
				CHANNELS 3 Zrotation Yrotation Xrotation
				JOINT lowerneck
				{
					OFFSET 0 0 0
					CHANNELS 3 Zrotation Yrotation Xrotation
					JOINT Neck
					{
						OFFSET 0.09349 1.40783 0.22333
						CHANNELS 3 Zrotation Yrotation Xrotation
						JOINT Head
						{
							OFFSET -0.04273 1.44500 -0.06495
							CHANNELS 3 Zrotation Yrotation Xrotation
							End Site
							{
								OFFSET -0.02251 1.44600 -0.04544
							}
						}
					}
				}
				JOINT LeftCollar
				{
					OFFSET 0 0 0
					CHANNELS 3 Zrotation Yrotation Xrotation
					JOINT LeftShoulder
					{
						OFFSET 3.49137 0.85126 -0.29740
CHANNELS 3 Zrotation Xrotation Yrotation
						JOINT LeftElbow
						{
OFFSET 0 -5.060350 0.000000
CHANNELS 3 Zrotation Xrotation Yrotation
							JOINT LeftWrist
							{
OFFSET 0 -3.147800 0.000000
CHANNELS 3 Zrotation Xrotation Yrotation
								JOINT lhand
								{
									OFFSET 0 0 0
CHANNELS 3 Zrotation Xrotation Yrotation
									JOINT LFingers
									{
OFFSET 0 -0.606750 0.000000
CHANNELS 3 Zrotation Xrotation Yrotation
										End Site
										{
OFFSET 0 -0.489180 0.000000
										}
									}
								}
								JOINT LThumb
								{
OFFSET 0 0.000000 0.000000
CHANNELS 3 Zrotation Xrotation Yrotation
									End Site
									{
OFFSET 0 -0.496640 0.496640
									}
								}
							}
						}
					}
				}
				JOINT RightCollar
				{
					OFFSET 0 0 0
					CHANNELS 3 Zrotation Yrotation Xrotation
					JOINT RightShoulder
					{
						OFFSET -3.28101 0.69707 0.00747
CHANNELS 3 Zrotation Xrotation Yrotation
						JOINT RightElbow
						{
OFFSET 0 -5.122730 -0.000000
CHANNELS 3 Zrotation Xrotation Yrotation
							JOINT RightWrist
							{
OFFSET 0 -3.422000 0.000000
CHANNELS 3 Zrotation Xrotation Yrotation
								JOINT rhand
								{
									OFFSET 0 0 0
CHANNELS 3 Zrotation Xrotation Yrotation
									JOINT RFingers
									{
OFFSET 0 -0.704600 0.000000
CHANNELS 3 Zrotation Xrotation Yrotation
										End Site
										{
OFFSET 0 -0.568070 0.000000
										}
									}
								}
								JOINT RThumb
								{
OFFSET 0 0.000000 0.000000
CHANNELS 3 Zrotation Xrotation Yrotation
									End Site
									{
OFFSET 0 -0.576740 0.576740
									}
								}
							}
						}
					}
				}
			}
		}
	}
}
MOTION
Frames: 10
Frame Time: 0.008333333333333333
39.941800 16.094200 1.559100 174.646000 -87.710000 -167.889000 0.000000 0.000000 0.000000 -18.479000 -11.686400 -28.402600 3.502300 11.466900 33.871300 0.050400 -10.717800 -8.276200 4.520400 12.822400 38.707300 0.000000 0.000000 0.000000 19.477500 2.010200 -1.548900 -7.199000 -15.497200 49.623000 -0.263100 -0.193100 9.621300 -1.957300 -8.776600 25.099100 -3.870300 -0.192100 0.586300 0.813200 -0.267200 2.506000 3.002900 -0.232800 2.269700 2.322900 -3.947700 -0.867100 -0.658800 -5.360500 -5.718600 -0.522000 -2.739800 -1.713200 0.000000 0.000000 0.000000 1.643700 -1.724200 21.429600 4.280600 -7.366500 0.275700 13.150400 41.957700 -46.923000 0.000000 0.000000 0.000000 -7.125000 0.000000 0.000000 -46.036900 73.303300 32.600600 0.000000 0.000000 0.000000 -0.650600 -6.984800 14.130800 -15.786400 -25.230100 -3.554400 -25.449300 -8.065100 -34.291800 0.000000 0.000000 0.000000 7.125000 0.000000 -0.000000 3.967000 -7.002000 4.431000
39.710320 16.137542 1.576179 154.708730 -86.987788 -147.920975 0.000000 0.000000 0.000000 -20.012469 -10.977673 -27.095953 3.299579 11.163927 32.835811 0.064685 -10.787611 -8.532037 4.616795 12.938411 39.138924 0.000000 0.000000 0.000000 18.042105 2.797581 -4.094056 -8.400494 -16.399575 53.982603 -0.367252 0.720202 11.728525 -1.242443 -7.029754 19.819377 -5.168357 -0.206262 1.004094 0.679681 -0.303018 2.289397 3.598500 -0.258177 1.828069 2.307575 -3.820187 -1.054263 -0.760390 -5.204302 -5.813856 -0.556142 -2.662537 -1.711481 0.000000 0.000000 0.000000 1.233383 -1.829037 21.813431 4.834752 -8.305013 0.351938 10.929869 40.949977 -45.564291 0.000000 0.000000 0.000000 -7.125000 0.000000 0.000000 -44.748195 71.639820 30.110459 0.000000 0.000000 0.000000 -0.152051 -7.135836 11.324098 -14.619767 -23.611544 -3.073430 -24.828439 -5.426298 -34.468217 0.000000 0.000000 0.000000 7.125000 0.000000 0.000000 4.338059 -7.028292 4.849392
39.483763 16.180793 1.576271 137.447068 -86.767589 -130.764861 0.000000 0.000000 0.000000 -21.403611 -10.397969 -25.566407 3.074419 10.814381 31.656676 0.039469 -11.295404 -8.492942 4.665620 12.997056 39.357420 0.000000 0.000000 0.000000 16.916927 2.843857 -6.680939 -9.520721 -17.130924 57.873345 -0.395315 0.837703 12.206277 -0.951128 -6.207516 17.388560 -6.216243 -0.549062 1.196643 0.457465 -0.769397 2.284423 3.955262 -0.507254 1.775681 2.676632 -3.739901 -1.007876 -1.136248 -5.116235 -5.959966 -0.734153 -2.621243 -1.788716 0.000000 0.000000 0.000000 1.180482 -1.681723 14.959162 5.570522 -9.543964 0.465451 10.686513 34.301144 -44.563559 0.000000 0.000000 0.000000 -7.125000 0.000000 0.000000 -42.695409 70.885790 27.917434 0.000000 0.000000 0.000000 0.751999 -7.513919 8.270019 -13.556211 -22.096523 -2.659028 -24.863643 -3.153314 -34.230141 0.000000 0.000000 0.000000 7.125000 0.000000 0.000000 4.275311 -6.793813 4.763649
39.235077 16.215888 1.592098 132.989446 -86.158820 -126.383199 0.000000 0.000000 0.000000 -22.461669 -9.997519 -23.861176 2.872296 10.484808 30.561942 0.092687 -11.193810 -9.162853 4.441900 12.726124 38.352131 0.000000 0.000000 0.000000 15.900740 3.004970 -9.140565 -10.503005 -17.679854 61.152433 -0.220858 1.199458 9.327759 -0.558830 -4.783199 13.292215 -6.955439 -0.747756 1.164009 0.423544 -1.035597 2.141813 4.334803 -0.645644 1.693840 2.490164 -3.747631 -0.542836 -1.208158 -5.114940 -5.970536 -0.716350 -2.611410 -1.870131 0.000000 0.000000 0.000000 0.867595 -1.402167 7.914406 6.298331 -10.758294 0.594224 11.094694 28.320538 -44.206000 0.000000 0.000000 0.000000 -7.125000 0.000000 0.000000 -41.520592 70.777323 26.973484 0.000000 0.000000 0.000000 1.236342 -7.470793 5.392274 -12.583258 -20.671840 -2.305333 -25.339333 -1.844842 -33.971283 0.000000 0.000000 0.000000 7.125000 0.000000 0.000000 3.967649 -6.646415 4.410360
39.002886 16.250097 1.605326 130.620449 -86.086770 -124.273771 0.000000 0.000000 0.000000 -22.988838 -9.535660 -22.170770 2.708997 10.208357 29.654126 0.117839 -11.339184 -9.582102 4.441694 12.726099 38.351557 0.000000 0.000000 0.000000 15.488958 2.776968 -11.350260 -11.354126 -18.103766 63.926007 -0.082906 1.580357 6.250237 -0.505189 -4.555897 12.646199 -7.021155 -0.929049 1.469847 0.376667 -1.303617 2.095136 4.327293 -0.772658 1.508040 2.258579 -3.905584 -0.047972 -0.898298 -5.299574 -6.106207 -0.565828 -2.702017 -1.987323 0.000000 0.000000 0.000000 0.968684 -1.546685 1.857345 6.986175 -11.896406 0.728845 10.854447 23.343752 -44.290146 0.000000 0.000000 0.000000 -7.125000 0.000000 0.000000 -41.940659 70.754122 27.256397 0.000000 0.000000 0.000000 1.827134 -7.357652 2.727387 -11.822608 -19.537941 -2.042634 -26.344972 -1.533843 -33.405130 0.000000 0.000000 0.000000 7.125000 0.000000 0.000000 3.310483 -6.317032 3.660547
38.765228 16.284208 1.631759 135.733341 -85.603927 -129.627526 0.000000 0.000000 0.000000 -23.491977 -8.960121 -20.556705 2.579898 9.981424 28.916905 0.206027 -11.017047 -10.526896 4.472595 12.763971 38.491401 0.000000 0.000000 0.000000 15.016640 3.166887 -13.484906 -11.977895 -18.380185 65.917517 -0.014078 1.993523 3.710061 -0.600909 -4.958619 13.791259 -6.917225 -0.981944 1.566931 0.317360 -1.381319 2.104474 4.208636 -0.808757 1.468285 2.402380 -3.492767 -0.513452 -1.181502 -4.768607 -5.827404 -0.700069 -2.435366 -1.818686 0.000000 0.000000 0.000000 1.091527 -2.172457 -1.655930 7.379289 -12.541727 0.812129 11.990620 21.968745 -43.246304 0.000000 0.000000 0.000000 -7.125000 0.000000 0.000000 -38.628685 70.391631 24.602952 0.000000 0.000000 0.000000 2.183509 -7.144742 0.988189 -11.228958 -18.637717 -1.848930 -27.054771 -2.153350 -32.652100 0.000000 0.000000 0.000000 7.125000 0.000000 0.000000 2.777111 -5.719347 3.043770
38.539034 16.306221 1.651209 134.760042 -85.686729 -128.877192 0.000000 0.000000 0.000000 -23.853269 -8.750675 -19.000061 2.477499 9.796821 28.321198 0.259928 -10.987051 -11.163365 4.625620 12.949295 39.178991 0.000000 0.000000 0.000000 14.812286 3.078575 -15.687880 -12.419026 -18.562095 67.310950 0.011828 2.078723 1.519031 -0.700953 -5.351369 14.913473 -6.807081 -1.263803 1.724279 0.414900 -1.768044 2.170787 4.249314 -1.004293 1.496357 1.924984 -3.382841 -0.374240 -0.873199 -4.613617 -6.043409 -0.521861 -2.355539 -1.886839 0.000000 0.000000 0.000000 1.061724 -2.952486 -4.477822 7.789860 -13.211522 0.903628 11.669145 20.777375 -43.700665 0.000000 0.000000 0.000000 -7.125000 0.000000 0.000000 -39.879727 70.614284 25.663515 0.000000 0.000000 0.000000 2.310986 -7.075362 -0.804919 -10.661207 -17.766915 -1.671099 -27.500383 -2.929352 -32.294434 0.000000 0.000000 0.000000 7.125000 0.000000 0.000000 2.462265 -5.462695 2.687815
38.310481 16.318391 1.668220 139.089891 -85.467075 -133.160117 0.000000 0.000000 0.000000 -24.002681 -8.539944 -17.877396 2.418477 9.688158 27.972591 0.336907 -10.839104 -11.987018 4.302456 12.548887 37.707707 0.000000 0.000000 0.000000 14.750128 3.610378 -18.086045 -12.698433 -18.670395 68.186039 0.010991 2.253999 -0.362503 -0.643640 -5.130255 14.280897 -6.756613 -1.334303 1.713122 0.601404 -1.863699 2.054107 4.416099 -1.045198 1.398582 2.044272 -3.344778 -0.593602 -1.357512 -4.590184 -5.892632 -0.698873 -2.337720 -1.816761 0.000000 0.000000 0.000000 1.049113 -3.559243 -7.674486 8.310579 -14.054673 1.026607 11.351698 19.051627 -43.955682 0.000000 0.000000 0.000000 -7.125000 0.000000 0.000000 -40.732854 70.688719 26.332773 0.000000 0.000000 0.000000 2.249547 -6.643618 -2.481763 -10.268021 -17.157565 -1.553222 -27.719811 -3.382853 -32.117081 0.000000 0.000000 0.000000 7.125000 0.000000 0.000000 2.306577 -5.334965 2.512986
38.089447 16.323138 1.673382 136.091885 -85.876390 -130.334417 0.000000 0.000000 0.000000 -24.091379 -8.488921 -16.669116 2.403432 9.660264 27.883283 0.374955 -11.283495 -12.587988 3.985720 12.141370 36.233779 0.000000 0.000000 0.000000 14.951030 3.350852 -20.208370 -12.846198 -18.725873 68.647145 -0.014213 2.381277 -2.507227 -0.600818 -4.960369 13.795856 -6.794650 -1.650269 2.044515 0.821695 -2.311912 2.019533 4.676024 -1.265926 1.245117 2.091216 -3.219535 -0.805507 -1.667255 -4.442022 -5.785616 -0.810474 -2.260481 -1.752662 0.000000 0.000000 0.000000 1.082696 -4.455027 -9.867266 8.738732 -14.743041 1.132778 11.650562 18.636121 -43.812452 0.000000 0.000000 0.000000 -7.125000 0.000000 0.000000 -40.129629 70.688275 25.902192 0.000000 0.000000 0.000000 2.117924 -6.039104 -3.678393 -10.093788 -16.886056 -1.502084 -26.579990 -3.600837 -32.257579 0.000000 0.000000 0.000000 7.125000 0.000000 0.000000 2.968747 -5.189713 3.229293
37.871339 16.308453 1.689288 140.719751 -85.603527 -134.577307 0.000000 0.000000 0.000000 -24.221798 -8.448091 -16.248367 2.433903 9.716711 28.064016 0.492896 -11.323783 -13.828616 4.025456 12.194136 36.422399 0.000000 0.000000 0.000000 14.864869 4.213300 -22.855424 -12.852784 -18.728321 68.667624 -0.046472 3.022722 -4.061583 -0.770416 -5.600150 15.629688 -6.599754 -1.738058 1.773454 0.895770 -2.409064 1.821660 4.638064 -1.303522 1.199790 2.019463 -3.135041 -1.200640 -1.733422 -4.336354 -5.524362 -0.828491 -2.207228 -1.597933 0.000000 0.000000 0.000000 1.183732 -5.482995 -11.262567 9.062443 -15.259676 1.216670 12.577701 19.184174 -43.905529 0.000000 0.000000 0.000000 -7.125000 0.000000 0.000000 -39.375096 71.070330 25.681323 0.000000 0.000000 0.000000 1.992064 -5.416628 -4.589497 -9.891346 -16.569424 -1.443905 -25.988980 -3.328173 -32.325986 0.000000 0.000000 0.000000 7.125000 0.000000 0.000000 3.310977 -5.113197 3.598744
